<svg xmlns="http://www.w3.org/2000/svg" xmlns:xlink="http://www.w3.org/1999/xlink" xml:space="preserve" version="1.1" style="shape-rendering:geometricPrecision;text-rendering:geometricPrecision;image-rendering:optimizeQuality;" viewBox="0 0 333.33 416.66249999999997" x="0px" y="0px" fill-rule="evenodd" clip-rule="evenodd"><defs><style type="text/css">
   
   
  </style></defs><g><path class="fil0" d="M217.87 323.8l-14.08 0 -0.13 0 -0.13 0 -27.65 0 -0.13 0 -0.13 0 -27.65 0 -0.13 0 -0.13 0 -27.65 0 -0.13 0 -0.13 0 -14.09 0c-3.04,0 -5.91,-0.58 -8.59,-1.72 -2.65,-1.13 -5.06,-2.81 -7.18,-5.02l-0.28 -0.32c-1.99,-2.15 -3.48,-4.52 -4.44,-7.08 -1.02,-2.69 -1.46,-5.59 -1.33,-8.64 0.77,-18.19 3.49,-33.93 8.14,-47.2 4.74,-13.55 11.52,-24.57 20.3,-33.01 2.09,-2.02 4.42,-3.54 6.96,-4.56 2.56,-1.04 5.3,-1.55 8.18,-1.55l9.97 0 0 -16.3c0,-2.76 2.24,-5 5,-5l2.38 0 0 -166.92c0,-4.49 1.79,-8.6 4.69,-11.65l0.3 -0.32c3.07,-3.07 7.32,-4.98 11.99,-4.98 4.66,0 8.9,1.91 11.97,4.98 3.09,3.08 5,7.33 5,11.98l0 166.92 2.38 0c2.76,0 5,2.24 5,5l0 16.3 9.97 0c2.88,0 5.61,0.52 8.17,1.55 2.55,1.02 4.88,2.55 6.97,4.57 8.78,8.44 15.55,19.46 20.3,33.01 4.64,13.26 7.36,29 8.14,47.2 0.13,3.05 -0.32,5.94 -1.34,8.64 -1.02,2.7 -2.6,5.18 -4.72,7.39 -2.11,2.2 -4.52,3.89 -7.17,5.02 -2.68,1.14 -5.56,1.72 -8.59,1.72zm-3.24 -283.24l4.17 10.97 10.97 4.17c2.57,0.97 3.88,3.85 2.91,6.42 -0.52,1.4 -1.61,2.42 -2.91,2.91l-10.97 4.17 -4.17 10.97c-0.97,2.57 -3.85,3.88 -6.42,2.91 -1.4,-0.52 -2.42,-1.61 -2.91,-2.91l-4.17 -10.97 -10.97 -4.17c-2.57,-0.97 -3.88,-3.85 -2.91,-6.42 0.52,-1.4 1.61,-2.42 2.91,-2.91l10.97 -4.17 4.17 -10.97c0.97,-2.57 3.85,-3.88 6.42,-2.91 1.4,0.52 2.42,1.61 2.91,2.91zm-4.37 16.59l-0.3 -0.79 -0.3 0.79c-0.49,1.3 -1.51,2.39 -2.91,2.91l-0.79 0.3 0.79 0.3c1.3,0.49 2.39,1.51 2.91,2.91l0.3 0.79 0.3 -0.79c0.49,-1.3 1.51,-2.39 2.91,-2.91l0.79 -0.3 -0.79 -0.3c-1.3,-0.49 -2.39,-1.51 -2.91,-2.91zm-110.44 26.23l6.02 15.85 15.85 6.02c2.57,0.97 3.88,3.85 2.91,6.42 -0.52,1.4 -1.61,2.42 -2.91,2.91l-15.85 6.02 -6.02 15.85c-0.97,2.57 -3.85,3.88 -6.42,2.91 -1.4,-0.52 -2.42,-1.61 -2.91,-2.91l-6.02 -15.85 -15.85 -6.02c-2.57,-0.97 -3.88,-3.85 -2.91,-6.42 0.52,-1.4 1.61,-2.42 2.91,-2.91l15.85 -6.02 6.02 -15.85c0.97,-2.57 3.85,-3.88 6.42,-2.91 1.4,0.52 2.42,1.61 2.91,2.91zm-2.52 21.47l-2.15 -5.67 -2.15 5.67c-0.49,1.3 -1.51,2.39 -2.91,2.91l-5.67 2.15 5.67 2.15c1.3,0.49 2.39,1.51 2.91,2.91l2.15 5.67 2.15 -5.67c0.49,-1.3 1.51,-2.39 2.91,-2.91l5.67 -2.15 -5.67 -2.15c-1.3,-0.49 -2.39,-1.51 -2.91,-2.91zm142.09 35.38l6.96 18.34 18.34 6.96c2.57,0.97 3.88,3.85 2.91,6.42 -0.52,1.4 -1.61,2.42 -2.91,2.91l-18.34 6.96 -6.96 18.34c-0.97,2.57 -3.85,3.88 -6.42,2.91 -1.4,-0.52 -2.42,-1.61 -2.91,-2.91l-6.96 -18.34 -18.34 -6.96c-2.57,-0.97 -3.88,-3.85 -2.91,-6.42 0.52,-1.4 1.61,-2.42 2.91,-2.91l18.34 -6.96 6.96 -18.34c0.97,-2.57 3.85,-3.88 6.42,-2.91 1.4,0.52 2.42,1.61 2.91,2.91zm-1.57 23.96l-3.09 -8.16 -3.09 8.16c-0.49,1.3 -1.51,2.39 -2.91,2.91l-8.16 3.09 8.16 3.09c1.3,0.49 2.39,1.51 2.91,2.91l3.09 8.16 3.09 -8.16c0.49,-1.3 1.51,-2.39 2.91,-2.91l8.16 -3.09 -8.16 -3.09c-1.3,-0.49 -2.39,-1.51 -2.91,-2.91zm-83.01 29.22l13.95 0 0 -166.92c0,-1.91 -0.78,-3.66 -2.04,-4.91 -1.26,-1.26 -3.01,-2.05 -4.94,-2.05 -1.91,0 -3.66,0.79 -4.92,2.05l-0.21 0.2c-1.14,1.23 -1.84,2.89 -1.84,4.7l0 166.92zm-7.38 21.3l28.71 0 0 -11.3 -2.25 0 -0.13 0 -23.95 0 -0.13 0 -2.25 0 0 11.3zm-32.5 54.55c0,-2.76 2.24,-5 5,-5 2.76,0 5,2.24 5,5l0 44.55 17.91 0 0 -44.55c0,-2.76 2.24,-5 5,-5 2.76,0 5,2.24 5,5l0 44.55 17.91 0 0 -44.55c0,-2.76 2.24,-5 5,-5 2.76,0 5,2.24 5,5l0 44.55 17.91 0 0 -44.55c0,-2.76 2.24,-5 5,-5 2.76,0 5,2.24 5,5l0 44.55 9.21 0c1.73,0 3.3,-0.3 4.69,-0.89 1.41,-0.6 2.72,-1.52 3.9,-2.76 1.17,-1.22 2.04,-2.56 2.57,-3.99 0.54,-1.44 0.78,-3.03 0.71,-4.74 -0.73,-17.2 -3.27,-31.98 -7.59,-44.31 -4.22,-12.05 -10.16,-21.76 -17.8,-29.11 -1.17,-1.12 -2.43,-1.96 -3.77,-2.5 -1.32,-0.53 -2.81,-0.8 -4.46,-0.8l-14.84 0 -0.13 0 -38.71 0 -0.13 0 -14.84 0c-1.65,0 -3.15,0.27 -4.47,0.8 -1.34,0.54 -2.6,1.37 -3.76,2.49 -7.64,7.35 -13.59,17.07 -17.8,29.11 -4.32,12.34 -6.86,27.11 -7.59,44.31 -0.07,1.71 0.17,3.3 0.7,4.73 0.51,1.36 1.31,2.63 2.36,3.79l0.21 0.2c1.18,1.23 2.49,2.16 3.9,2.76 1.39,0.59 2.97,0.89 4.69,0.89l9.22 0 0 -44.55z"/></g></svg>