<svg xmlns="http://www.w3.org/2000/svg" version="1.1" viewBox="-5.0 -10.0 110.0 135.0">
 <path d="m87 45.191c0-18.02-16.602-32.691-37-32.691s-37 14.672-37 32.691c0 8.7188 3.8398 16.922 10.809 23.102 0.75 0.67188 1.1914 1.6484 1.1914 2.6797v10.32c0 2.4102 1.3789 4.5508 3.5898 5.5898 0.89062 0.42188 1.8281 0.62109 2.7695 0.62109 1.4609 0 2.8984-0.5 4.0781-1.4883l8.7383-7.2617c0.82812-0.69141 1.8984-1.0508 2.9414-0.96875 0.94922 0.070313 1.9219 0.10156 2.8789 0.10156 20.402 0.003906 37.004-14.668 37.004-32.695zm-37 26.699c-0.82031 0-1.6484-0.03125-2.4609-0.078125-2.6016-0.17188-5.1484 0.64844-7.1797 2.3398l-8.7383 7.2617c-0.17188 0.14063-0.35156 0.10156-0.46875 0.050782-0.15234-0.085938-0.15234-0.13672-0.15234-0.17578v-10.32c0-2.75-1.1719-5.3711-3.2109-7.1797-5.668-5.0078-8.7891-11.617-8.7891-18.598 0-14.711 13.91-26.691 31-26.691s31 11.98 31 26.691c0 14.719-13.91 26.699-31 26.699z"/>
</svg>