<svg xmlns="http://www.w3.org/2000/svg" xmlns:xlink="http://www.w3.org/1999/xlink" xmlns:xodm="http://www.corel.com/coreldraw/odm/2003" xml:space="preserve" version="1.1" style="shape-rendering:geometricPrecision;text-rendering:geometricPrecision;image-rendering:optimizeQuality;" viewBox="0 0 8.4666 10.58325" x="0px" y="0px" fill-rule="evenodd" clip-rule="evenodd"><defs><style type="text/css">
   
   
  </style></defs><g><path class="fil0" d="M1.5878 3.2684l-0.0009 0c-0.0498,0.0056 -0.0837,0.0588 -0.0997,0.1236l-0.0008 0.0031c-0.0073,0.0311 -0.0105,0.0644 -0.0096,0.0971 0.0009,0.033 0.0062,0.0659 0.0158,0.0954l0.001 0.0032c0.0166,0.0492 0.0459,0.0862 0.0864,0.0882l0.0078 -0.0003 1.832 0 0 -0.4103 -0.3675 0 -0.0022 0 -0.0022 0 -1.4601 0zm4.4932 0.8898c0.0083,-0.0458 0.0524,-0.0761 0.0982,-0.0678 0.0458,0.0083 0.0761,0.0524 0.0678,0.0982 -0.0972,0.5292 -0.1949,1.0733 -0.2929,1.6333 -0.0971,0.5544 -0.1909,1.1028 -0.2812,1.6451 -0.0076,0.046 -0.0512,0.077 -0.0972,0.0694 -0.046,-0.0076 -0.077,-0.0512 -0.0694,-0.0972 0.093,-0.5585 0.1868,-1.1074 0.2812,-1.6463 0.051,-0.2915 0.1034,-0.5867 0.1572,-0.8854 -0.0055,0.0074 -0.0113,0.0146 -0.0173,0.0216 -0.0367,0.0424 -0.0832,0.0765 -0.135,0.0993 -0.0721,0.0316 -0.1562,0.0425 -0.2414,0.0252l-0.0021 -0.0003 -0.0009 -0.0002 -0.0041 -0.0009 -0.0042 -0.001 -0.0007 -0.0001 -0.0014 -0.0005 -0.0099 -0.0037 -0.0004 -0.0001 -0.0088 -0.0047 -0.0005 -0.0002 -0.0013 -0.0009 -0.0034 -0.0023 -0.0006 -0.0004 -0.001 -0.0008 -0.0008 -0.0005 -0.0009 -0.0008 -0.0008 -0.0005c-0.0396,-0.0318 -0.0848,-0.0708 -0.1348,-0.1165l-0.0253 -0.0233 0 0.826 -0.0008 0.0115c-0.0054,0.0873 -0.0657,0.1559 -0.164,0.2075 -0.0899,0.0473 -0.2175,0.0824 -0.3622,0.1051l-0.0021 0.0004 -0.002 0.0003 -0.0001 0 -0.0021 0.0003 -0.001 0.0002 -0.0011 0.0001c-0.0667,0.0102 -0.1353,0.0179 -0.2037,0.023l-0.0019 0.0001c-0.069,0.005 -0.1423,0.0079 -0.2171,0.0083l-0.0017 0 -0.0019 0 -0.0003 0 -0.0022 0 -0.0011 0c-0.0757,0.0004 -0.1504,-0.0018 -0.2212,-0.0064 -0.0737,-0.0047 -0.1449,-0.012 -0.2112,-0.0215 -0.145,-0.0209 -0.2734,-0.0542 -0.3648,-0.1 -0.0982,-0.0491 -0.1592,-0.1153 -0.1658,-0.1997l0 -0.0007 -0.0003 -0.0021 -0.0007 -0.0108 0 -1.8894 -1.6002 0 0.3749 2.056 0.3362 1.8192c0.0178,0.0387 0.0437,0.0705 0.0772,0.0948 0.0361,0.0261 0.0823,0.0448 0.1383,0.0556l2.8962 0c0.0482,-0.0148 0.0871,-0.0351 0.1164,-0.0606 0.0282,-0.0244 0.0486,-0.055 0.0611,-0.0915l0.3396 -1.8376 0.3721 -2.041 -1.1825 0 0 0.0374c0.1143,0.1154 0.2207,0.2248 0.3192,0.3282 0.1019,0.1069 0.1993,0.2115 0.2914,0.3135l0.0001 0.0001 0.0015 0.0015c0.0073,0.0074 0.0134,0.016 0.0177,0.026 0.0084,0.019 0.0151,0.0379 0.0202,0.0567l0.0818 -0.4482zm-3.7796 0.0304c-0.0083,-0.0458 0.022,-0.0899 0.0678,-0.0982 0.0458,-0.0083 0.0899,0.022 0.0982,0.0678 0.1021,0.5562 0.2002,1.1018 0.2935,1.6347 0.0944,0.5389 0.1882,1.0878 0.2812,1.6463 0.0076,0.046 -0.0234,0.0896 -0.0694,0.0972 -0.046,0.0076 -0.0896,-0.0234 -0.0972,-0.0694 -0.0903,-0.5423 -0.1841,-1.0907 -0.2812,-1.6451 -0.098,-0.56 -0.1957,-1.1041 -0.2929,-1.6333zm3.6807 3.5804c-0.0219,0.0682 -0.0596,0.1256 -0.1129,0.1717 -0.0491,0.0426 -0.1111,0.0752 -0.1855,0.0969 -0.0094,0.0035 -0.0195,0.0055 -0.0301,0.0055l-2.9142 0c-0.0064,0 -0.0126,-0.0008 -0.0185,-0.0021l-0.0006 -0.0001 -0.002 -0.0005c-0.0823,-0.0154 -0.1524,-0.0441 -0.2096,-0.0855 -0.0588,-0.0427 -0.1036,-0.0985 -0.134,-0.1673l0 -0.0002 -0.0009 -0.0019 -0.0006 -0.0012 -0.0003 -0.0007 -0.0024 -0.0058 -0.0003 -0.0009 -0.0004 -0.001 -0.0003 -0.0011 -0.0004 -0.001 -0.0002 -0.001 -0.001 -0.0031 -0.0002 -0.001 -0.0003 -0.0011 -0.0002 -0.001 -0.0003 -0.0011 -0.0001 -0.0009 -0.0003 -0.0012 -0.0001 -0.0009 -0.3379 -1.828 -0.3804 -2.0864 -0.0603 0 -0.0076 -0.0003c-0.1259,-0.0009 -0.2078,-0.0875 -0.2469,-0.2037l-0.0015 -0.0043c-0.0143,-0.0441 -0.0222,-0.0933 -0.0236,-0.143 -0.0014,-0.0474 0.0034,-0.0958 0.0141,-0.1409l0.0009 -0.0043c0.0325,-0.1323 0.1161,-0.2408 0.252,-0.2517 0.0041,-0.0006 0.0083,-0.0009 0.0126,-0.0009l0.4633 0 -0.4255 -0.9216 -0.3732 -0.8136 -0.0009 -0.0018 -0.002 -0.0045 -0.0005 -0.0011 -0.0003 -0.0009 -0.0005 -0.001 -0.0003 -0.001 -0.0004 -0.0009 -0.0003 -0.0011 -0.0003 -0.0008 -0.0015 -0.0053 -0.0002 -0.0006 -0.0003 -0.0015 -0.0012 -0.0061 -0.0001 -0.0003 -0.0002 -0.0018 -0.0001 -0.0002 -0.0001 -0.0018 -0.0001 -0.0002 -0.0001 -0.0019 -0.0001 -0.0002 0 -0.0018 -0.0001 -0.0002 0 -0.0019c-0.0002,-0.0048 0.0001,-0.0095 0.0007,-0.0143l0.0001 0c0.0015,-0.0106 0.0049,-0.0209 0.0105,-0.0305l0.0004 -0.0008 0.0035 -0.0055c0.0686,-0.0975 0.1535,-0.1689 0.2541,-0.2136 0.0979,-0.0437 0.2087,-0.061 0.3325,-0.0522l0.002 0.0001 0.0021 0.0001 0.0014 0.0001 0.0006 0 0.0016 0.0002 0.0004 0 0.0017 0.0002 0.0004 0 0.0018 0.0003 0.0002 0 0.0019 0.0004 0.0001 0 0.002 0.0004 0.002 0.0004 0.0001 0 0.0018 0.0005 0.0002 0 0.0018 0.0005 0.0002 0.0001 0.0018 0.0005 0.0003 0.0001 0.0016 0.0005 0.0003 0.0001 0.0016 0.0006 0.0004 0.0001 0.0015 0.0006 0.0005 0.0001 0.0014 0.0006 0.0005 0.0002 0.0014 0.0006 0.0005 0.0003 0.0013 0.0006 0.0005 0.0002 0.0013 0.0007 0.0006 0.0003 0.0012 0.0006 0.0006 0.0003 0.0012 0.0007 0.0006 0.0003 0.0012 0.0007 0.0005 0.0004 0.0012 0.0007 0.0006 0.0004 0.0011 0.0007 0.0006 0.0004 0.0011 0.0007 0.0006 0.0004 0.0011 0.0008 0.0021 0.0017 0.0011 0.0008 0.0005 0.0005 0.0015 0.0013 0.0011 0.0009 0.0005 0.0005 0.0011 0.0009 0.0003 0.0004 0.0011 0.001 0.0004 0.0005 0.0011 0.001 0.0003 0.0004 0.0011 0.0011 0.0003 0.0004 0.0013 0.0015 0.0011 0.0012 0.0002 0.0004 0.0011 0.0012 0.0002 0.0004 0.0047 0.0065 0 0.0001 0.001 0.0017 0.0001 0 0.001 0.0018 0.0001 0.0001 0.0009 0.0017 0.0002 0.0002 0.0007 0.0016 0.0002 0.0003 0.0007 0.0015 0.0003 0.0004 0.0006 0.0015 0.0003 0.0005 0.0005 0.0013 0.015 0.0337 0.4409 -0.2029c0.0423,-0.0195 0.0926,-0.001 0.1121,0.0413 0.0195,0.0423 0.001,0.0926 -0.0413,0.1121l-0.4429 0.2036 0.0362 0.0807 0.4409 -0.203c0.0423,-0.0195 0.0926,-0.001 0.1121,0.0413 0.0195,0.0423 0.001,0.0926 -0.0413,0.1121l-0.4422 0.2034 0.0374 0.0825 0.4409 -0.203c0.0423,-0.0195 0.0926,-0.001 0.1121,0.0413 0.0195,0.0423 0.001,0.0926 -0.0413,0.1121l-0.4417 0.2031 0.0338 0.0738 0.441 -0.2031c0.0423,-0.0195 0.0926,-0.001 0.1121,0.0413 0.0195,0.0423 0.001,0.0926 -0.0413,0.1121l-0.4414 0.203 0.0341 0.074 0.4413 -0.2032c0.0423,-0.0195 0.0926,-0.001 0.1121,0.0413 0.0195,0.0423 0.001,0.0926 -0.0413,0.1121l-0.4411 0.2029 0.0381 0.0821 0.4416 -0.2032c0.0423,-0.0195 0.0926,-0.001 0.1121,0.0413 0.0195,0.0423 0.001,0.0926 -0.0413,0.1121l-0.4411 0.2028 0.1552 0.3312 0.1705 0.3584 0.1022 0c-0.0003,-0.0926 -0.0012,-0.1605 -0.0021,-0.2277l-0.0029 -0.2786c0,-0.0175 0.0053,-0.0338 0.0145,-0.0473l0.0009 -0.0015 0.0002 -0.0002c0.0404,-0.0675 0.1062,-0.1563 0.1976,-0.2663 0.0866,-0.1042 0.1982,-0.2295 0.334,-0.3752l0.0011 -0.2122 -0.0012 -0.22 -0.0001 -0.0022 0 -0.0013 0 -0.0008 0 -0.0014 0 -0.0008 0.0001 -0.0013 0.0001 -0.0022 0 -0.0013 0.0001 -0.0008c0.0063,-0.1003 0.116,-0.1585 0.2496,-0.1773 0.0395,-0.0054 0.0825,-0.0078 0.1253,-0.0071 0.0429,0.0006 0.0854,0.0048 0.1234,0.0119 0.1203,0.0228 0.2105,0.0807 0.2097,0.1791l0 0.003 0.0021 0.2225 -0.0018 0.2126c0.1356,0.1456 0.2469,0.2708 0.3334,0.3748 0.0485,0.0583 0.0898,0.1106 0.124,0.157 0.0328,-0.0486 0.0729,-0.1023 0.1223,-0.1685 0.074,-0.0992 0.17,-0.2277 0.2907,-0.4041l0.0015 -0.3555c-0.0088,-0.0113 -0.0165,-0.0233 -0.0231,-0.0358l-0.002 -0.0039 -0.1794 0c-0.0467,0 -0.0847,-0.038 -0.0847,-0.0847l0.0004 -0.0088 0.0001 -0.0198c0.0011,-0.4578 0.0016,-0.6004 0.283,-0.6736l0.0047 -0.0013 0.0003 0 0.0017 -0.0005 0.0004 0 0.0017 -0.0005 0.0004 0 0.0043 -0.0007 0.0015 -0.0003 0.0006 0 0.0102 -0.0007 1.0945 0 0.0022 0 0.0095 0.0005c0.175,0.0031 0.2922,0.0572 0.3482,0.1262 0.0298,0.0366 0.0449,0.0779 0.0449,0.12 0,0.042 -0.0148,0.0831 -0.044,0.1199 -0.0477,0.0598 -0.1399,0.1093 -0.2739,0.1257l0 0.2117 0 0.0022 0 0.0022 0 0.4992c0,0.0467 -0.038,0.0847 -0.0847,0.0847l-0.0075 -0.0003c-0.1448,0.001 -0.2388,-0.0496 -0.2976,-0.1599 -0.0382,-0.0718 -0.0572,-0.1683 -0.0637,-0.2931l-0.0033 0.0035 0.0021 0.1628 0.0046 0.1801c0.121,0.1769 0.2172,0.3058 0.2913,0.4051 0.2486,0.3334 0.2681,0.3598 0.2593,0.8381l0.3684 0c0.0043,0 0.0085,0.0004 0.0126,0.001 0.1357,0.0108 0.2194,0.1177 0.252,0.2479 0.0114,0.0454 0.0165,0.0947 0.0151,0.1432 -0.0014,0.0497 -0.0094,0.0978 -0.0235,0.1409 -0.0384,0.117 -0.121,0.2045 -0.2486,0.2054l-0.0076 0.0003 -0.055 0 -0.3776 2.0714 -0.3401 1.84 -0.0003 0.0021 -0.0004 0.0019 0 0.0002 -0.0004 0.0019 0 0.0001 -0.0005 0.002 0 0.0001 -0.0005 0.002 0 0.0001 -0.0006 0.002 0 0.0001 -0.0006 0.0019 0 0.0002zm-1.2613 -1.8791c-0.0001,-0.158 -0.0014,-0.3293 -0.0027,-0.5137l-0.0035 -0.6153c0,-0.0465 0.0378,-0.0843 0.0843,-0.0843 0.0465,0 0.0843,0.0378 0.0843,0.0843l0.0035 0.6139c0.0012,0.1744 0.0025,0.3368 0.0027,0.4876 0.087,-0.0184 0.1616,-0.0421 0.2163,-0.0709 0.0437,-0.023 0.0708,-0.0457 0.074,-0.0664l0 -0.0032 0 -1.0236c0,-0.0467 0.038,-0.0847 0.0847,-0.0847 0.0248,0 0.0472,0.0107 0.0627,0.0278l0.0013 0.0015c0.0579,0.0564 0.1112,0.107 0.1598,0.1513 0.0417,0.0381 0.0788,0.0704 0.1107,0.0967 0.0442,0.0061 0.0875,-0.0007 0.1253,-0.0173 0.0296,-0.013 0.0558,-0.032 0.0756,-0.0549 0.019,-0.0221 0.033,-0.0486 0.0394,-0.0777l0.0016 -0.0063c0.0058,-0.032 0.0026,-0.068 -0.0119,-0.1061 -0.0832,-0.0918 -0.1776,-0.1932 -0.283,-0.3036 -0.1046,-0.1097 -0.2171,-0.2253 -0.3369,-0.3461 -0.0179,-0.0155 -0.0293,-0.0385 -0.0293,-0.064l0 -0.1544 0 -0.0022 0 -0.0022 0 -0.4824 -0.5576 0 -0.0093 -0.0005c-0.1737,-0.0027 -0.3524,-0.0045 -0.5354,-0.0053l-0.4882 0.0001 0 0.4932 0 0.0022 0 0.0022 0 1.9719 0 0.0025c0.0033,0.0179 0.03,0.0386 0.0728,0.06 0.0546,0.0273 0.1295,0.0497 0.217,0.0671l0 -1.1062c0,-0.0465 0.0378,-0.0843 0.0843,-0.0843 0.0465,0 0.0843,0.0378 0.0843,0.0843l0 1.1317c0.041,0.0046 0.0831,0.0083 0.1256,0.0111 0.0431,0.0027 0.0866,0.0046 0.1297,0.0056 -0.0002,-0.1615 -0.0014,-0.3419 -0.0026,-0.5348l-0.0032 -0.6136c0,-0.0465 0.0378,-0.0843 0.0843,-0.0843 0.0465,0 0.0843,0.0378 0.0843,0.0843l0.0032 0.613c0.0012,0.1928 0.0025,0.373 0.0026,0.5346 0.0411,-0.0014 0.0826,-0.0036 0.1243,-0.0067l0.0016 -0.0001c0.0427,-0.0031 0.0841,-0.0071 0.1234,-0.0118zm0.6283 -2.2163l1.409 0 0.0078 0.0003c0.0414,-0.002 0.0712,-0.0396 0.0876,-0.0892 0.0095,-0.0288 0.0149,-0.0606 0.0157,-0.0923 0.0009,-0.0331 -0.0026,-0.0667 -0.0105,-0.0982 -0.0158,-0.0632 -0.0498,-0.115 -0.0997,-0.1205l-0.0009 0 -1.293 0 -0.0022 0 -0.0022 0 -0.1116 0 0 0.3999zm-2.9077 -0.5746c-0.1288,-0.2726 -0.2586,-0.551 -0.3888,-0.8346 -0.1441,-0.3139 -0.29,-0.6368 -0.4373,-0.9685 -0.0162,-0.0365 -0.0043,-0.0784 0.0264,-0.1014 -0.0212,0.0058 -0.0415,0.013 -0.0609,0.0216 -0.0589,0.026 -0.1108,0.0659 -0.1558,0.1194l0.354 0.7711 0.4581 0.9924 0.2043 0zm-0.7267 -1.9184c0.0235,0.0065 0.044,0.0231 0.0546,0.0471 0.141,0.3175 0.2868,0.64 0.4367,0.9665 0.1372,0.2988 0.278,0.6005 0.4222,0.9048l0.0479 0 -0.1364 -0.2864 -0.1866 -0.3985 -0.0057 -0.0104 -0.0037 -0.0096 -0.0992 -0.2138c-0.0025,-0.0036 -0.0046,-0.0076 -0.0065,-0.0117 -0.0017,-0.0038 -0.0031,-0.0076 -0.0042,-0.0115l-0.0937 -0.2033c-0.0026,-0.0039 -0.0049,-0.008 -0.0069,-0.0124 -0.0019,-0.0041 -0.0034,-0.0084 -0.0046,-0.0126l-0.0926 -0.2026c-0.0025,-0.0037 -0.0048,-0.0077 -0.0067,-0.012 -0.0019,-0.0041 -0.0033,-0.0083 -0.0045,-0.0125l-0.0972 -0.2142 -0.0052 -0.0096c-0.0016,-0.0035 -0.003,-0.0071 -0.004,-0.0107l-0.099 -0.22 -0.002 -0.0041 -0.0017 -0.004 -0.0008 -0.002 -0.027 -0.0603c-0.0253,-0.0002 -0.0497,0.0011 -0.0732,0.0038zm1.9611 0.2867l0 0.0002 0.0021 0.2225 -0.0014 0.1608 0.3708 0 0.0009 -0.1608 -0.0012 -0.22 -0.0001 -0.0022 0 -0.0013 0 -0.0008 0 -0.0014 0 -0.0008 -0.0721 -0.0121c-0.0297,-0.0056 -0.0625,-0.0088 -0.095,-0.0093 -0.0329,-0.0006 -0.0671,0.0014 -0.0995,0.0059 -0.0565,0.0078 -0.1028,0.016 -0.1045,0.0193zm-0.3388 1.0552c-0.0444,-0.0146 -0.0685,-0.0625 -0.0539,-0.1069 0.0015,-0.0046 0.0034,-0.009 0.0056,-0.0131 -0.0714,0.0866 -0.1244,0.1576 -0.1589,0.213l0.0043 0.4835 0.3682 0 0.0022 0 0.0086 0.0004 0.5649 -0.0001 0.458 0.0045c-0.0023,-0.1269 -0.0026,-0.2208 0.0032,-0.2964 0.0062,-0.0821 0.0195,-0.1461 0.0436,-0.2078 -0.0369,-0.0566 -0.0915,-0.1282 -0.1632,-0.2144 -0.0852,-0.1025 -0.1936,-0.2243 -0.3245,-0.365l-0.4675 0c-0.1269,0.1365 -0.2327,0.255 -0.3168,0.3556 0.0215,-0.0171 0.0511,-0.0233 0.0792,-0.0141 0.1389,0.0459 0.2854,0.0689 0.4391,0.0689 0.1562,0 0.3193,-0.0233 0.4888,-0.0698 0.0449,-0.0122 0.0913,0.0142 0.1035,0.0591 0.0122,0.0449 -0.0142,0.0913 -0.0591,0.1035 -0.1861,0.051 -0.3639,0.0766 -0.5332,0.0766 -0.1715,0 -0.3359,-0.0259 -0.4921,-0.0775zm3.3684 -1.3716c-0.0339,-0.0319 -0.0355,-0.0855 -0.0036,-0.1194 0.0105,-0.0111 0.0232,-0.0188 0.0369,-0.0229 -0.0348,-0.0106 -0.0601,-0.0429 -0.0601,-0.0811 0,-0.0382 0.0253,-0.0705 0.0601,-0.0811 -0.0137,-0.0041 -0.0264,-0.0118 -0.0369,-0.0229 -0.0319,-0.0339 -0.0303,-0.0875 0.0036,-0.1194l0.2739 -0.2577c0.0339,-0.0319 0.0875,-0.0303 0.1194,0.0036 0.0319,0.0339 0.0303,0.0875 -0.0036,0.1194l-0.2739 0.2577c-0.0072,0.0067 -0.0151,0.012 -0.0236,0.0157l0.3417 0c0.0467,0 0.0847,0.038 0.0847,0.0847 0,0.0467 -0.038,0.0847 -0.0847,0.0847l-0.3417 0c0.0085,0.0037 0.0164,0.009 0.0236,0.0157l0.2739 0.2578c0.0339,0.0319 0.0355,0.0855 0.0036,0.1194 -0.0319,0.0339 -0.0855,0.0355 -0.1194,0.0036l-0.2739 -0.2578zm-0.4162 -0.1526c0.0731,-0.011 0.1201,-0.0341 0.1417,-0.0612 0.0044,-0.0056 0.0068,-0.0107 0.0068,-0.0147 0,-0.0036 -0.0023,-0.0084 -0.0065,-0.0136 -0.0215,-0.0264 -0.0684,-0.0486 -0.142,-0.0585l0 0.148zm-1.1705 -0.1532c-0.1416,0.0403 -0.1499,0.1439 -0.151,0.4521l1.1521 0 0 -0.4521 -1.0011 0zm0.8836 0.6215c0.0033,0.1198 0.0165,0.2066 0.0459,0.2618 0.0156,0.0294 0.0389,0.0492 0.0716,0.0602l0 -0.322 -0.1175 0zm-0.548 0.0132l0.0086 -0.0004 0.0076 0.0003c0.037,-0.0007 0.074,-0.0051 0.1085,-0.0131l-0.2365 0c0.0351,0.0083 0.0733,0.0128 0.1118,0.0132zm0.0933 0.1633l0 1.4612 0.4097 0c-0.0019,-0.156 -0.0049,-0.2334 -0.0348,-0.3103 -0.0286,-0.0735 -0.0857,-0.1598 -0.1915,-0.3196l-0.1351 -0.2056c-0.0254,-0.0391 -0.0143,-0.0914 0.0248,-0.1168 0.0391,-0.0254 0.0914,-0.0143 0.1168,0.0248l0.1343 0.2044c0.112,0.1692 0.1726,0.2607 0.2081,0.352 0.0406,0.104 0.0438,0.1926 0.046,0.3711l0.0952 0c0.0076,-0.4231 -0.0102,-0.4472 -0.2263,-0.7369 -0.0765,-0.1025 -0.1766,-0.2367 -0.3092,-0.4314 -0.0024,-0.0036 -0.0046,-0.0073 -0.0064,-0.0112l-0.0005 -0.0012 -0.0004 -0.0007 -0.0004 -0.0012 -0.0004 -0.0007 -0.0004 -0.0012 -0.0004 -0.0008 -0.0014 -0.0039 -0.0003 -0.0011 -0.0012 -0.004 -0.0003 -0.0009 -0.0002 -0.0012 -0.0018 -0.0104 -0.0001 -0.0005 -0.0001 -0.0017 -0.0001 -0.0003 0 -0.0018 -0.0001 -0.0003 0 -0.0019 -0.0001 -0.0001 0 -0.0021 0 -0.002 0 -0.002 -0.0051 -0.2012 -0.0009 -0.0661 -0.0125 0.0039 -0.0044 0.0014c-0.0319,0.0092 -0.0658,0.016 -0.1005,0.0203zm-0.1694 1.4612l0 -1.4605c-0.0383,-0.0044 -0.0756,-0.012 -0.1102,-0.0226l-0.0122 -0.0039 -0.0011 0.2666 0.0001 0.0009 0 0.002 -0.0004 0.0102 -0.0001 0c-0.0014,0.0136 -0.0059,0.027 -0.0141,0.039 -0.1325,0.1945 -0.2326,0.3286 -0.3091,0.4311 -0.086,0.1152 -0.1421,0.1903 -0.175,0.257l-0.0008 0.0018 0 0.0001 -0.0008 0.0018 -0.0007 0.0013 -0.0002 0.0006 -0.0009 0.0018 -0.0001 0.0002c-0.0255,0.0542 -0.0389,0.1101 -0.0448,0.1883 -0.0055,0.0729 -0.0052,0.1629 -0.003,0.2843l0.0899 0c0.0023,-0.1785 0.0057,-0.2672 0.0461,-0.3711 0.0355,-0.0913 0.0961,-0.1828 0.2081,-0.352l0.1343 -0.2044c0.0254,-0.0391 0.0777,-0.0502 0.1168,-0.0248 0.0391,0.0254 0.0502,0.0777 0.0248,0.1168l-0.1351 0.2056c-0.1058,0.1598 -0.1629,0.2461 -0.1915,0.3196 -0.0299,0.0768 -0.0329,0.1544 -0.0349,0.3103l0.2989 0 0.0022 0 0.0022 0 0.1116 0z"/></g></svg>