<svg xmlns="http://www.w3.org/2000/svg" xmlns:xlink="http://www.w3.org/1999/xlink" version="1.1" x="0px" y="0px" viewBox="0 0 504.005 630.01875" style="enable-background:new 0 0 504.005 504.015;" xml:space="preserve"><g><path d="M285.037,129.799c0.104-0.02,10.55-1.728,17.776,3.363c0.7,0.494,1.504,0.73,2.3,0.73c1.257,0,2.495-0.591,3.273-1.696   c1.272-1.806,0.84-4.301-0.966-5.573c-9.983-7.034-23.205-4.805-23.762-4.705c-2.172,0.383-3.618,2.449-3.241,4.622   C280.795,128.712,282.868,130.164,285.037,129.799z"/><path d="M198.906,133.893c0.796,0,1.6-0.236,2.3-0.73c7.199-5.072,17.595-3.394,17.774-3.364c2.181,0.382,4.242-1.074,4.625-3.246   c0.384-2.176-1.069-4.25-3.245-4.634c-0.557-0.099-13.779-2.328-23.762,4.705c-1.806,1.272-2.238,3.768-0.966,5.573   C196.411,133.302,197.648,133.893,198.906,133.893z"/><path d="M238.92,189.887c4.334,1.228,8.738,1.851,13.09,1.851s8.756-0.623,13.09-1.851c2.126-0.603,3.361-2.813,2.759-4.938   s-2.812-3.363-4.938-2.759c-7.252,2.055-14.568,2.055-21.82,0c-2.121-0.602-4.336,0.632-4.938,2.759   C235.558,187.073,236.794,189.284,238.92,189.887z"/><path d="M213.298,159.971l-1.322-0.114c-1.805-0.101-3.088-0.77-3.807-2.009c-1.109-1.91-3.558-2.561-5.468-1.452   c-1.91,1.109-2.561,3.557-1.452,5.468c0.788,1.358,1.821,2.499,3.034,3.42c-1.267-0.118-2.485-0.394-3.306-0.883   c-1.897-1.129-4.354-0.509-5.483,1.39c-1.131,1.897-0.509,4.353,1.39,5.483c2.214,1.319,5.659,2.052,9.031,2.052   c0.084,0,0.167-0.006,0.252-0.007c1.46,1.558,3.53,2.537,5.833,2.537c4.418,0,8-3.582,8-8   C220,163.881,217.098,160.593,213.298,159.971z"/><path d="M308.505,165.791c-1.13-1.898-3.586-2.519-5.483-1.39c-0.821,0.489-2.039,0.765-3.306,0.883   c1.213-0.921,2.246-2.062,3.034-3.42c1.108-1.911,0.458-4.358-1.452-5.468c-1.909-1.106-4.358-0.458-5.468,1.452   c-0.719,1.239-2.002,1.908-3.807,2.009l-1.322,0.114c-3.799,0.622-6.701,3.91-6.701,7.885c0,4.418,3.582,8,8,8   c2.304,0,4.374-0.979,5.834-2.538c0.084,0.001,0.167,0.007,0.251,0.007c3.371,0,6.817-0.731,9.031-2.051   C309.013,170.145,309.636,167.689,308.505,165.791z"/><path d="M251.99,383.487c7.903,0,14.334-6.431,14.334-14.334s-6.431-14.334-14.334-14.334s-14.334,6.431-14.334,14.334   S244.087,383.487,251.99,383.487z M251.99,362.819c3.492,0,6.334,2.842,6.334,6.334s-2.842,6.334-6.334,6.334   s-6.334-2.842-6.334-6.334S248.498,362.819,251.99,362.819z"/><path d="M503.974,337.085c-0.268-4.114-2.258-7.949-5.461-10.521c-5.308-4.266-12.459-11.596-16.381-22.298   c-2.846-7.767-3.817-22.52-4.942-39.602c-1.838-27.902-4.125-62.627-16.168-86.192c-8.954-17.522-22.371-31.14-37.779-38.342   c-16.524-7.723-33.975-7.776-50.466-0.151c-5.142,2.378-9.834,5.543-13.933,9.336c7.85-41.331,0.785-80.005-20.285-108.293   C318.856,14.568,288.115,0,252,0s-66.856,14.568-86.56,41.021c-23.719,31.845-29.699,76.851-16.619,123.994   c-0.026,0.01-0.052,0.019-0.078,0.029c-9.565,3.835-15.606,13.496-16.572,24.56L17.646,210.468   c-11.661,2.125-19.42,13.341-17.296,25.001l6.162,33.826c1.89,10.365,10.958,17.646,21.14,17.646l63.733-11.257   c1.936,5.345,5.04,9.278,9.374,11.885c-1.262,2.185-1.785,4.799-1.304,7.441l6.24,34.256c0.587,3.221,2.56,5.991,5.412,7.601   c0.769,0.433,1.579,0.757,2.408,0.992l9.765,53.601c-16.105,26.313-29.611,60.445-37.017,104.695   c-0.198,1.18-0.143,2.412,0.276,3.533c1.001,2.684,3.502,4.328,6.192,4.328h318.056c2.057,0,4.009-0.905,5.338-2.475   c1.325-1.566,1.905-3.641,1.565-5.664c-6.456-38.403-17.511-69.171-30.867-93.819l0.667-17.179   c3.588,5.269,8.629,8.295,15.274,8.846c9.553-0.666,14.584-6.22,16.958-11.844c1.482,1.342,3.032,2.514,4.661,3.459   c2.814,1.633,5.825,2.454,8.793,2.454c2.487,0,4.943-0.577,7.227-1.737c2.412-1.226,4.426-3.011,5.874-5.107   c1.933,1.415,3.959,2.47,6.076,3.051c2.005,0.55,3.964,0.819,5.837,0.819c5.269,0,9.852-2.131,12.839-6.132   c1.946-2.608,2.91-5.707,2.899-8.851l2.207,0.118c6.463-0.088,11.366-3.15,13.453-8.404c1.078-2.713,1.241-5.729,0.607-8.681   c3.556-0.252,7.03-1.763,9.676-4.525C502.749,345.34,504.245,341.236,503.974,337.085z M171.856,45.8   C190.275,21.071,217.988,8,252,8s61.725,13.071,80.144,37.8c20.066,26.941,26.511,64.192,18.443,104.098   c-3.452-10.298-10.121-23.004-23.002-32.129c-12.691-8.989-24.66-11.663-37.331-14.492c-11.407-2.548-23.202-5.183-36.203-12.942   c-24.642-14.71-33.602-38.317-33.765-38.757c-0.755-2.075-3.049-3.148-5.124-2.394c-2.076,0.753-3.149,3.047-2.396,5.124   c0.165,0.457,1.971,5.295,6.055,11.952c-4.143,17.833-20.853,33.162-37.032,48c-11.805,10.826-23.201,21.288-29.009,32.309   C145.722,107.925,152.349,71.99,171.856,45.8z M146.82,321.445l-6.211-34.089c-0.502-2.759-2.03-5.104-4.133-6.709   c3.028-4.165,4.518-9.007,4.286-13.959l41.536-7.567c4.378,4.456,9.256,8.705,14.381,12.514c-3.746,5.927-5.715,12.443-5.715,19.06   c0,9.743,4.198,19.05,11.918,26.735c-16.789,8.196-36.643,21.218-55.44,41.772l-4.898-26.885c0.687-0.512,1.324-1.102,1.885-1.777   C146.54,328.003,147.41,324.688,146.82,321.445z M252.009,283.737c-19.441,0-36.223-8.643-46.877-15.893   c-12.271-8.352-23.371-19.628-29.693-30.165c-8.098-13.497-14.713-39.789-17.697-70.331c0.503-20.888,14.375-34.371,29.452-47.192   c15.2-13.939,30.839-28.291,37.407-45.531c5.816,7.518,14.056,15.839,25.348,22.579c14.103,8.418,26.535,11.195,38.559,13.881   c11.865,2.649,23.071,5.152,34.45,13.212c20.563,14.566,23.083,40.721,23.288,43.397c-1.843,21.253-5.59,40.199-10.665,54.563   c-2.451,6.101-4.798,11.35-7.001,15.423c-6.323,10.539-17.427,21.817-29.701,30.17   C288.226,275.098,271.447,283.737,252.009,283.737z M272,289.074v13.499l-20,29.631l-20-29.631l0.007-13.502   c6.245,1.641,12.949,2.667,20.003,2.667C259.059,291.737,265.758,290.712,272,289.074z M198.965,290.694   c0-4.981,1.497-9.925,4.315-14.493c5.688,3.648,12.711,7.431,20.728,10.357L224,301.856c-3.854,3.069-7.063,6.555-9.607,10.463   c-1.19,0.476-2.405,0.979-3.644,1.509C203.135,307.257,198.965,299.117,198.965,290.694z M227.124,309.648l17.606,26.084   c-11.126,1.243-21.262,3.765-29.532,8.696C214.021,329.353,217.95,317.901,227.124,309.648z M223.329,349.225   c8.011-3.719,17.479-5.651,28.671-5.855c11.192,0.204,20.659,2.136,28.671,5.855v43.166c0,15.81-12.861,28.671-28.671,28.671   s-28.671-12.861-28.671-28.671V349.225z M259.269,335.732l17.606-26.084c9.174,8.253,13.103,19.705,11.926,34.78   C281.135,338.564,270.964,336.111,259.269,335.732z M280,301.856v-15.293c8.022-2.927,15.049-6.712,20.739-10.362   c2.817,4.567,4.314,9.512,4.314,14.493c0,8.426-4.171,16.568-11.791,23.14c-1.242-0.531-2.461-1.036-3.655-1.514   C287.064,308.413,283.854,304.926,280,301.856z M313.053,290.694c0-6.618-1.969-13.133-5.714-19.061   c11.596-8.616,21.908-19.518,28.1-29.839c2.364-3.939,4.57-8.629,6.591-13.947c3.005-0.043,5.962-0.65,8.787-1.748   c1.954,3.751,4.211,7.501,6.741,11.203c-0.057,0.388-0.098,0.78-0.113,1.179l-0.732,18.863c-0.125,3.229,1.145,6.359,3.484,8.587   c0.689,0.656,1.458,1.204,2.274,1.661l-3.719,94.049c-19.435-21.969-40.185-35.692-57.624-44.207   C308.852,309.75,313.053,300.44,313.053,290.694z M362.172,229.771c-1.607-2.526-3.07-5.065-4.381-7.6   c2.581-1.954,4.935-4.357,6.956-7.156c1.059,4.099,2.436,8.307,4.121,12.607C366.36,227.61,364.114,228.289,362.172,229.771z    M362.153,202.953c-3.203,8.773-10.004,15.074-17.267,16.565c4.042-13.058,7.106-28.918,8.878-46.347   C362.801,177.912,366.578,190.837,362.153,202.953z M150.307,173.143c1.937,17.338,4.965,32.97,8.795,45.758   c-7.387-1.297-14.084-7.294-17.243-15.948C137.423,190.81,141.228,177.857,150.307,173.143z M26.896,264.772l2.556,14.029   c-7.094,0.956-13.773-3.829-15.068-10.94l-6.162-33.826c-1.334-7.321,3.537-14.362,10.858-15.696l113.285-20.637   c0.359,2.665,1.011,5.348,1.977,7.996c0.351,0.962,0.748,1.891,1.167,2.802L24.398,228.741c-2.174,0.396-3.614,2.479-3.219,4.652   c0.353,1.931,2.035,3.284,3.931,3.284c0.238,0,0.479-0.021,0.722-0.065l114.173-20.8c1.999,2.505,4.29,4.653,6.792,6.386   L27.176,243.99c-2.174,0.396-3.614,2.479-3.219,4.652c0.353,1.931,2.035,3.284,3.931,3.284c0.238,0,0.479-0.021,0.722-0.065   l133.371-24.297c1.051,2.845,2.146,5.499,3.284,7.935L30.115,260.12C27.941,260.517,26.501,262.6,26.896,264.772z M37.328,277.399   l-1.844-10.125l133.787-24.373c1.916,3.062,4.176,6.163,6.72,9.236L37.328,277.399z M99.419,274.22l33.372-6.08   c-0.153,4.892-3.022,8.44-5.044,10.337c-6.2,0.459-12.758,1.711-19.538,3.732C104.037,280.846,101.216,278.296,99.419,274.22z    M115.038,329.898c-0.776-0.438-1.313-1.191-1.472-2.066l-6.24-34.256c-0.27-1.477,0.617-2.928,2.063-3.376   c7.094-2.198,13.893-3.49,20.208-3.838c0.058-0.003,0.115-0.005,0.172-0.005c1.452,0,2.713,1.02,2.97,2.432l6.211,34.09   c0.165,0.906-0.079,1.835-0.67,2.546c-0.324,0.389-1.038,1.043-2.183,1.047c0,0,0,0-0.001,0c-6.102,0.021-12.37,1.239-18.631,3.618   C116.378,330.503,115.478,330.146,115.038,329.898z M121.516,337.136c4.496-1.584,8.956-2.466,13.296-2.627l5.908,32.429   c-3.774,4.575-7.483,9.475-11.092,14.728L121.516,337.136z M153.884,421.063c-0.033-0.001-0.065-0.001-0.099-0.001   c-2.164,0-3.944,1.728-3.997,3.903l-1.713,71.05H94.407c15.156-88.438,55.235-134.717,90.35-158.773   c0.137,22.313,0.103,89.343-4.943,110.776c-3.877,16.472-15.807,32.438-23.578,41.495l1.551-64.354   C157.839,422.949,156.092,421.116,153.884,421.063z M161.223,496.015c8.234-9.363,21.893-27.11,26.378-46.164   c5.807-24.664,5.272-103.049,5.118-117.754c5.795-3.522,11.381-6.451,16.613-8.88c-2.557,8.288-3.009,17.877-1.283,28.749   c0.22,1.385,1.148,2.554,2.448,3.08c0.485,0.196,0.994,0.293,1.502,0.293c0.853,0,1.697-0.272,2.401-0.801   c0.304-0.228,0.618-0.442,0.928-0.663v38.517c0,20.221,16.45,36.671,36.671,36.671s36.671-16.45,36.671-36.671v-38.517   c0.31,0.221,0.625,0.436,0.929,0.664c0.703,0.528,1.548,0.801,2.4,0.801c0.507,0,1.017-0.097,1.502-0.293   c1.3-0.526,2.229-1.695,2.448-3.08c1.725-10.871,1.274-20.459-1.283-28.748c5.231,2.429,10.817,5.357,16.613,8.879   c-0.154,14.708-0.688,93.09,5.118,117.753c4.485,19.055,18.144,36.802,26.378,46.165H161.223z M409.59,496.015h-53.667   l-1.713-71.05c-0.053-2.176-1.833-3.903-3.997-3.903c-0.032,0-0.065,0-0.099,0.001c-2.208,0.054-3.955,1.887-3.902,4.096   l1.551,64.354c-7.771-9.057-19.701-25.023-23.578-41.496c-5.046-21.433-5.079-88.461-4.943-110.774   C354.353,361.296,394.434,407.576,409.59,496.015z M366.396,370.821l4.029-101.91c4.722-0.33,9.268-0.216,13.551,0.346   l-4.66,119.947C375.153,382.579,370.827,376.466,366.396,370.821z M386.757,261.569   C386.757,261.569,386.757,261.569,386.757,261.569c-3.576-0.565-7.312-0.849-11.166-0.849c-2.379,0-4.805,0.107-7.265,0.324   c-0.976,0.081-1.909-0.234-2.613-0.906c-0.687-0.653-1.044-1.535-1.007-2.482l0.732-18.863c0.066-1.703,1.469-3.091,3.191-3.16   c7.088-0.284,13.742-0.058,19.789,0.67c0.016,0.002,0.032,0.003,0.048,0.005c0.002,0,0.004,0,0.006,0.001   c1.642,0.199,2.876,1.683,2.811,3.378l-0.734,18.888c-0.035,0.904-0.438,1.719-1.136,2.291   C388.683,261.465,387.715,261.727,386.757,261.569z M402.209,385.743c-8.941,0.621-13.049-16.628-13.854-23.127l3.653-94.023   c0.884-0.402,1.719-0.919,2.482-1.545c1.5-1.231,2.629-2.824,3.313-4.6c1.881,3.028,3.867,7.25,5.236,12.962   c1.914,7.986,1.295,22.876,0.696,37.275c-0.56,13.44-1.088,26.135,0.237,34.663c1.68,10.814,4.983,20.061,9.495,27.042   C413.153,377.381,411.449,385.1,402.209,385.743z M436.778,378.924c-1.495,0.761-4.572,1.705-8.381-0.505   c-2.769-1.607-5.291-4.076-7.519-7.248c-0.008-0.013-0.017-0.025-0.026-0.037c-4.223-6.031-7.364-14.638-8.976-25.014   c-1.204-7.752-0.668-20.639-0.149-33.102c0.622-14.947,1.266-30.403-0.909-39.474c-3.079-12.843-8.976-19.694-11.97-22.481   l0.281-7.217c1.762-5.144,5.649-12.65,9.246-14.178c0.827-0.353,1.514-0.326,2.366,0.09c0.714,0.348,4.391,3.145,6.681,24.174   c1.517,13.917,1.952,30.872,2.336,45.831c0.38,14.767,0.68,26.43,1.892,31.966c2.574,11.755,9.094,31.754,18.71,43.472   C439.741,376.699,438.448,378.076,436.778,378.924z M464.617,373.902c-2.034,2.726-5.734,3.594-10.148,2.383   c-10.795-2.961-21.303-29.358-25.005-46.267c-1.049-4.792-1.369-17.26-1.708-30.46c-1.073-41.754-2.671-71.718-13.515-76.993   c-2.934-1.426-6.046-1.517-9.003-0.256c-3.85,1.639-6.947,5.461-9.236,9.308c-1.057-1.072-2.327-1.931-3.745-2.509   c-2.966-12.403-1.948-24.942,2.694-31.734c2.389-3.496,5.576-5.401,9.743-5.825c14.457-1.459,25.11,23.327,28.084,41.4   c1.455,8.84,2.057,26.032,2.639,42.659c0.756,21.589,1.47,41.98,3.938,50.282c2.929,9.854,12.289,32.203,25.787,40.695   C466.356,369.061,466.187,371.799,464.617,373.902z M482.153,358.598c-1.081,2.722-3.929,3.328-6.127,3.357   c-0.042,0.001-0.084,0.001-0.126,0.001l-6.144-1.884c-9.795-5.764-18.918-23.621-22.735-36.461   c-2.176-7.322-2.905-28.146-3.61-48.282c-0.618-17.656-1.201-34.333-2.739-43.679c-3.369-20.479-15.939-50.169-36.788-48.061   c-6.471,0.658-11.845,3.864-15.539,9.271c-6.483,9.488-6.631,23.708-4.519,34.977c-2.066-0.146-4.184-0.241-6.349-0.286   c-3.672-8.706-5.999-16.975-6.919-24.626c1.667-5.916,1.829-11.915,0.69-17.396c3.017-12.667,11.95-20.639,25.907-23.052   c27.922-4.826,44.132,30.113,49.308,51.519c2.92,12.082,4.16,32.667,5.359,52.573c1.385,22.996,2.693,44.717,6.519,54.998   c4.339,11.663,13.794,21.459,21.026,27.668C482.127,351.932,483.275,355.775,482.153,358.598z M494.093,342.811   c-2.508,2.621-6.623,2.83-9.37,0.482c-6.533-5.587-15.112-14.374-18.885-24.514c-3.409-9.164-4.742-31.291-6.031-52.689   c-1.221-20.255-2.482-41.2-5.569-53.972c-7.81-32.311-28.914-62.622-58.446-57.522c-13.588,2.349-23.581,9.339-29.02,20.01   c-2.674-4.041-6.311-7.268-10.741-9.228c4.692-7.895,11.694-14.249,20.103-18.138c28.548-13.204,60.524,1.139,77.765,34.872   c11.291,22.096,13.519,55.908,15.308,83.077c1.166,17.698,2.173,32.983,5.414,41.828c4.555,12.43,12.782,20.881,18.883,25.782   c1.479,1.189,2.363,2.896,2.487,4.805C496.118,339.553,495.444,341.401,494.093,342.811z"/></g></svg>