<svg xmlns="http://www.w3.org/2000/svg" xmlns:xlink="http://www.w3.org/1999/xlink" xmlns:serif="http://www.serif.com/" viewBox="0 0 32 40" version="1.1" xml:space="preserve" style="" x="0px" y="0px" fill-rule="evenodd" clip-rule="evenodd" stroke-linejoin="round" stroke-miterlimit="2"><g transform="matrix(1,0,0,1,0,-144)"><path d="M30,152C30,151.204 29.684,150.441 29.121,149.879C28.559,149.316 27.796,149 27,149L5,149C4.204,149 3.441,149.316 2.879,149.879C2.316,150.441 2,151.204 2,152C2,155.832 2,164.168 2,168C2,168.796 2.316,169.559 2.879,170.121C3.441,170.684 4.204,171 5,171L27,171C27.796,171 28.559,170.684 29.121,170.121C29.684,169.559 30,168.796 30,168L30,152ZM28,152.302L17.921,160.701C16.808,161.628 15.192,161.628 14.079,160.701L4,152.302L4,168C4,168.265 4.105,168.52 4.293,168.707C4.48,168.895 4.735,169 5,169C5,169 27,169 27,169C27.265,169 27.52,168.895 27.707,168.707C27.895,168.52 28,168.265 28,168L28,152.302ZM26.438,151L5.562,151L15.36,159.165C15.731,159.474 16.269,159.474 16.64,159.165L26.438,151Z"/></g></svg>