<svg xmlns="http://www.w3.org/2000/svg" version="1.1" viewBox="-5.0 -10.0 110.0 135.0">
 <g>
  <path d="m75.734 96.816c-17.02 0-34.992-8.332-49.988-23.324-13.902-13.902-22.145-30.453-23.207-46.609-0.38281-5.8086 1.9258-11.562 6.1758-15.395 3.5664-3.2188 7.1953-5.418 10.785-6.5469 3.8281-1.1953 8.0469 0.39062 10.266 3.8633 5.1641 8.082 8.3008 15.617 9.5938 23.039 0.48438 2.7695-0.39844 5.6758-2.3555 7.7734l-5.0117 5.3555c-0.52734 0.5625-0.58984 1.4141-0.15625 2.0703 2.6445 4.0117 5.7227 7.7812 9.1484 11.207 4.5039 4.5039 9.5234 8.3516 14.922 11.434 0.58594 0.33594 1.3633 0.22656 1.8867-0.26172l4.6445-4.3516c2.0977-1.9648 5.0039-2.8477 7.7852-2.3633 7.4258 1.2969 14.953 4.4336 23.02 9.582 3.4961 2.2305 5.0742 6.4922 3.8398 10.363-0.51953 1.625-1.2617 3.2695-2.2031 4.8828-2.9922 5.1328-8.4414 8.5273-14.57 9.0781-1.5156 0.13672-3.043 0.20312-4.5742 0.20312zm-53.633-88.227c-0.46484 0-0.93359 0.066406-1.3906 0.21094-3.0312 0.94922-6.1562 2.8633-9.2852 5.6875-3.3359 3.0117-5.1523 7.5469-4.8477 12.133 0.99609 15.172 8.8203 30.805 22.031 44.016 15.496 15.496 34.211 23.504 51.34 21.953 4.8281-0.43359 9.1055-3.0859 11.445-7.0859 0.79297-1.3594 1.4141-2.7305 1.8438-4.0781 0.67969-2.125-0.21094-4.4805-2.1641-5.7266-7.6055-4.8555-14.652-7.8008-21.543-9.0078-1.5352-0.26562-3.1484 0.23047-4.3242 1.332l-4.6484 4.3555c-1.8047 1.6914-4.543 2.0312-6.6562 0.82422-5.7109-3.2617-11.016-7.3242-15.773-12.086-3.6211-3.6172-6.8711-7.6016-9.668-11.84-1.4648-2.2227-1.2305-5.125 0.57812-7.0586l5.0117-5.3555c1.0977-1.1719 1.5938-2.7852 1.3281-4.3164-1.1992-6.8867-4.1484-13.938-9.0195-21.559-0.96875-1.5234-2.5977-2.3984-4.2578-2.3984z"/>
  <path d="m95.477 52.703c-1.1172 0-2.0195-0.90625-2.0195-2.0195 0-23.961-19.496-43.457-43.457-43.457-1.1172 0-2.0195-0.90625-2.0195-2.0195 0-1.1172 0.90625-2.0195 2.0195-2.0195 26.191 0 47.5 21.309 47.5 47.5-0.003906 1.1094-0.90625 2.0156-2.0234 2.0156z"/>
  <path d="m79.039 52.703c-1.1172 0-2.0195-0.90625-2.0195-2.0195 0-14.898-12.121-27.02-27.02-27.02-1.1172 0-2.0195-0.90625-2.0195-2.0195 0-1.1172 0.90625-2.0195 2.0195-2.0195 17.129 0 31.062 13.934 31.062 31.062-0.003906 1.1094-0.90625 2.0156-2.0234 2.0156z"/>
 </g></svg>