<svg xmlns="http://www.w3.org/2000/svg" data-name="Layer 1" viewBox="0 0 100 125" x="0px" y="0px"><defs><style>.cls-1{fill-rule:evenodd;}</style></defs><title>a</title><path class="cls-1" d="M83.962,68.8H10.789a1.765,1.765,0,0,0-1.756,1.756v1.756H85.718V70.556A1.763,1.763,0,0,0,83.962,68.8Zm-1.219-1.724V65.319a4.391,4.391,0,0,0-4.374-4.374H19.986a.862.862,0,0,1-.863-.862V57.254a6.612,6.612,0,0,1,4.556-6.514,19.656,19.656,0,0,1,7.126-1.1H60.562a3.067,3.067,0,0,0,3-2.053,4.372,4.372,0,0,0,0-3.009,3.066,3.066,0,0,0-3-2.053H30.805a33.287,33.287,0,0,0-5.022.347A21.1,21.1,0,0,0,21,44.147a14.533,14.533,0,0,0-6.633,5.189,13.821,13.821,0,0,0-2.359,7.918v9.822Zm-72.459.037V57.254a15.518,15.518,0,0,1,2.662-8.888,16.255,16.255,0,0,1,7.407-5.816,22.893,22.893,0,0,1,5.174-1.386,35.053,35.053,0,0,1,5.278-.367H60.562a4.72,4.72,0,0,1,4.614,3.171,6.036,6.036,0,0,1,0,4.221,4.721,4.721,0,0,1-4.614,3.171H30.805a18.062,18.062,0,0,0-6.48.976,5.014,5.014,0,0,0-3.477,4.918v1.967H78.369a6.115,6.115,0,0,1,6.1,6.1v1.794a3.489,3.489,0,0,1,2.976,3.443v2.619a.862.862,0,0,1-.863.862H81.763l5.646,19.869A.86.86,0,0,1,86.58,95v0H8.171a.862.862,0,0,1-.862-.862.852.852,0,0,1,.049-.287l5.177-19.814H8.171a.862.862,0,0,1-.862-.862V70.556a3.49,3.49,0,0,1,2.975-3.443ZM83.6,39.1a11.749,11.749,0,0,0,3.844,2.561,11.761,11.761,0,0,0-6.405,6.4,11.763,11.763,0,0,0-6.4-6.4,11.761,11.761,0,0,0,6.4-6.405A11.728,11.728,0,0,0,83.6,39.1ZM81.036,30a.862.862,0,0,1,.862.862A9.963,9.963,0,0,0,91.829,40.8a.862.862,0,1,1,0,1.724A9.963,9.963,0,0,0,81.9,52.452a.862.862,0,0,1-1.724,0,9.963,9.963,0,0,0-9.931-9.931.862.862,0,0,1,0-1.724,9.963,9.963,0,0,0,9.931-9.931A.862.862,0,0,1,81.036,30Zm-55.26-15.91a11.724,11.724,0,0,1-2.561-3.843,11.761,11.761,0,0,1-6.405,6.4,11.759,11.759,0,0,1,6.405,6.4,11.761,11.761,0,0,1,6.4-6.4,11.713,11.713,0,0,1-3.843-2.561ZM23.215,5a.862.862,0,0,1,.862.862,9.963,9.963,0,0,0,9.931,9.931.862.862,0,0,1,0,1.724,9.963,9.963,0,0,0-9.931,9.931.863.863,0,0,1-1.725,0,9.961,9.961,0,0,0-9.93-9.931.862.862,0,1,1,0-1.724,9.961,9.961,0,0,0,9.93-9.931A.862.862,0,0,1,23.215,5ZM53.589,25.567a7.978,7.978,0,0,1-1.464-2.011,8,8,0,0,1-3.474,3.475,8.008,8.008,0,0,1,3.474,3.474A8,8,0,0,1,55.6,27.031a7.978,7.978,0,0,1-2.011-1.464Zm-.6-5.594a6.217,6.217,0,0,0,6.2,6.2.862.862,0,1,1,0,1.724,6.217,6.217,0,0,0-6.2,6.2.862.862,0,0,1-1.724,0,6.217,6.217,0,0,0-6.2-6.2.862.862,0,0,1,0-1.724,6.217,6.217,0,0,0,6.2-6.2.862.862,0,1,1,1.724,0Zm-20.7,73.3,2.809-14.125a.861.861,0,1,1,1.69.33l-2.743,13.8H46.514V79.026a.862.862,0,1,1,1.724,0v14.25h12.5l-2.772-13.94a.861.861,0,1,1,1.69-.33L62.5,93.276H74.444L70.714,79.8a.86.86,0,1,1,1.657-.458l3.857,13.931h9.213L79.974,74.037H14.311L9.284,93.276h9.8l3.857-13.931a.86.86,0,1,1,1.657.458l-3.73,13.473Z"/></svg>