<svg xmlns="http://www.w3.org/2000/svg" xmlns:xlink="http://www.w3.org/1999/xlink" version="1.1" x="0px" y="0px" viewBox="-5.0 -10.0 110.0 135.0" style="enable-background:new 0 0 100 100;" xml:space="preserve"><path d="M39.5,89.2c-0.5,2-2.5,3.7-5.1,4.3c-0.1,0-0.2,0-0.2,0c-0.5,0-0.9-0.3-1-0.8c-0.1-0.5,0.2-1.1,0.7-1.2  c1.8-0.4,3.3-1.6,3.6-2.9c0.1-0.5,0.7-0.9,1.2-0.7C39.4,88.1,39.7,88.7,39.5,89.2z M44,87.9c-0.6-0.1-1,0.4-1,1c0,1.4-0.5,2.7-1.3,4  c-0.3,0.5-0.2,1.1,0.3,1.4c0.2,0.1,0.4,0.2,0.5,0.2c0.3,0,0.7-0.2,0.8-0.5c1-1.5,1.5-3.3,1.6-5C45,88.4,44.6,88,44,87.9z M66,91.6  c-1.8-0.4-3.3-1.6-3.6-2.9c-0.1-0.5-0.7-0.8-1.2-0.7c-0.5,0.1-0.9,0.7-0.7,1.2c0.5,2,2.5,3.7,5.1,4.3c0.1,0,0.2,0,0.2,0  c0.4,0,0.9-0.3,1-0.8C66.9,92.2,66.5,91.7,66,91.6z M57,88.9c0-0.6-0.5-1-1-1c-0.6,0-1,0.5-1,1c0,1.7,0.6,3.4,1.6,5  c0.2,0.3,0.5,0.5,0.8,0.5c0.2,0,0.4-0.1,0.5-0.2c0.5-0.3,0.6-0.9,0.3-1.4C57.5,91.6,57,90.3,57,88.9z M50,87.9c-0.6,0-1,0.4-1,1V94  c0,0.6,0.4,1,1,1s1-0.4,1-1v-5.1C51,88.4,50.6,87.9,50,87.9z M68.6,81.3v1.1c0,1.6-1.3,3-3,3H34.4c-1.6,0-3-1.3-3-3v-1.1  c0-1.5,1.2-2.8,2.7-3c0,0,0.1,0,0.1,0c2.5,0,5-1.5,7.1-4.2l0.4-0.5c0.2-0.2,0.5-0.4,0.8-0.4h1.2c-0.8-4.5-0.9-7.4-1.2-15.8  c-0.1-2.1,0.2-4.1,0.9-6l0.9-2.7c0.9-2.7,1.6-5.6,2-8.7c0.4-3,0.1-6.3,0.1-6.4c0-0.3,0.1-0.6,0.3-0.8c0.2-0.2,0.5-0.3,0.7-0.3h0.1  V17.7c-0.3-0.3-0.6-0.8-0.6-1.4V6.9c0-1.1,0.9-1.9,1.9-1.9h2.3c1.1,0,1.9,0.9,1.9,1.9v9.4c0,0.5-0.2,1-0.6,1.4v14.9h0.1  c0.3,0,0.6,0.1,0.7,0.3c0.2,0.2,0.3,0.5,0.3,0.8c0,0-0.3,3.3,0.1,6.4c0.4,3.1,1.1,6,2,8.7l0.9,2.7c0.6,1.8,0.9,3.9,0.9,6  c-0.3,8.4-0.4,11.3-1.2,15.8h1.2c0.3,0,0.6,0.1,0.8,0.4l0.4,0.5c2.1,2.8,4.6,4.2,7.1,4.2c0.1,0,0.1,0,0.1,0  C67.4,78.5,68.6,79.8,68.6,81.3z M49.1,16.1h1.9V7.1h-1.9V16.1z M49.6,18.2v14.3h0.7V18.2H49.6z M44.5,57h10.9  c0-1.7-0.2-3.4-0.7-4.9l-0.9-2.7c-1-2.8-1.7-5.9-2.1-9.1c-0.3-2.2-0.3-4.5-0.2-5.8h-3c0.1,1.3,0.1,3.6-0.2,5.8  c-0.5,3.2-1.2,6.3-2.1,9.1l-0.9,2.7C44.8,53.6,44.5,55.3,44.5,57z M44.6,59c0.3,7.5,0.4,10,1.1,14.2h8.5C55,69,55.1,66.5,55.4,59  H44.6z M39.9,78.3h20.1c-1.1-0.8-2.1-1.8-3-3L57,75.3H43L43,75.3C42,76.5,41,77.6,39.9,78.3z M66.6,81.3c0-0.5-0.4-1-1-1H34.4  c-0.5,0-1,0.4-1,1v1.1c0,0.5,0.4,1,1,1h31.2c0.5,0,1-0.4,1-1V81.3z M52.2,49.6v4.6c0,0.9-0.7,1.7-1.7,1.7h-1.1  c-0.9,0-1.7-0.7-1.7-1.7v-4.6c0-0.9,0.7-1.7,1.7-1.7h1.1C51.5,47.9,52.2,48.7,52.2,49.6z M50.2,49.9h-0.5v3.9h0.5V49.9z"/></svg>